<svg width="16" height="16" viewBox="0 0 16 16" fill="none" xmlns="http://www.w3.org/2000/svg">
<g opacity="0.8">
<path fill-rule="evenodd" clip-rule="evenodd" d="M0 0.558138C0 0.249887 0.255254 0 0.570127 0H1.89283C2.7971 0 3.54957 0.595424 3.78787 1.39162H13.2878C14.8864 1.39162 16.1077 2.66956 15.9925 4.23L15.582 9.81122L15.5818 9.81394C15.4755 11.1661 14.2727 12.2716 12.8773 12.2716H4.78146C3.20286 12.2716 1.95777 10.952 2.09249 9.41154C2.09251 9.4113 2.09247 9.41178 2.09249 9.41154L2.72338 2.00015C2.76389 1.52864 2.37927 1.11628 1.89283 1.11628H0.570127C0.255254 1.11628 0 0.866389 0 0.558138ZM3.82436 2.5079L3.22875 9.50492L3.22863 9.50633C3.15096 10.3916 3.86695 11.1553 4.78146 11.1553H12.8773C13.6707 11.1553 14.3831 10.5052 14.4448 9.72958C14.4448 9.72916 14.4449 9.72875 14.4449 9.72833L14.8552 4.14968C14.9224 3.23943 14.2281 2.5079 13.2878 2.5079H3.82436Z" fill="black"/>
<path fill-rule="evenodd" clip-rule="evenodd" d="M11.4022 14.1397C11.1923 14.1397 11.0221 14.3063 11.0221 14.5118C11.0221 14.7173 11.1923 14.8839 11.4022 14.8839C11.6121 14.8839 11.7823 14.7173 11.7823 14.5118C11.7823 14.3063 11.6121 14.1397 11.4022 14.1397ZM9.88184 14.5118C9.88184 13.6898 10.5625 13.0234 11.4022 13.0234C12.2418 13.0234 12.9225 13.6898 12.9225 14.5118C12.9225 15.3338 12.2418 16.0002 11.4022 16.0002C10.5625 16.0002 9.88184 15.3338 9.88184 14.5118Z" fill="black"/>
<path fill-rule="evenodd" clip-rule="evenodd" d="M5.3221 14.1397C5.11218 14.1397 4.94201 14.3063 4.94201 14.5118C4.94201 14.7173 5.11218 14.8839 5.3221 14.8839C5.53201 14.8839 5.70218 14.7173 5.70218 14.5118C5.70218 14.3063 5.53201 14.1397 5.3221 14.1397ZM3.80176 14.5118C3.80176 13.6898 4.48244 13.0234 5.3221 13.0234C6.16176 13.0234 6.84243 13.6898 6.84243 14.5118C6.84243 15.3338 6.16176 16.0002 5.3221 16.0002C4.48244 16.0002 3.80176 15.3338 3.80176 14.5118Z" fill="black"/>
<path fill-rule="evenodd" clip-rule="evenodd" d="M5.32129 5.02298C5.32129 4.71473 5.57654 4.46484 5.89142 4.46484H15.0134C15.3283 4.46484 15.5836 4.71473 15.5836 5.02298C15.5836 5.33123 15.3283 5.58112 15.0134 5.58112H5.89142C5.57654 5.58112 5.32129 5.33123 5.32129 5.02298Z" fill="black"/>
</g>
</svg>
