<svg xmlns="http://www.w3.org/2000/svg" width="18" height="18" fill="none" viewBox="0 0 18 18"
    class="priceInsured ? 'active-reservation' : ''">
    <path stroke="#515458" stroke-linecap="round" stroke-linejoin="round" stroke-width="1.5"
        d="M15.682 8.34c0 3.668-2.662 7.103-6.3 8.108a1.47 1.47 0 0 1-.765 0c-3.637-1.005-6.3-4.44-6.3-8.108V5.047c0-.615.465-1.312 1.043-1.545l4.177-1.71a3.9 3.9 0 0 1 2.933 0l4.177 1.71c.57.233 1.043.93 1.043 1.545z">
    </path>
    <path stroke="#515458" stroke-linecap="round" stroke-linejoin="round" stroke-miterlimit="10" stroke-width="1.5"
        d="M9 9.375a1.5 1.5 0 1 0 0-3 1.5 1.5 0 0 0 0 3M9 9.375v2.25"></path>
</svg>