<svg width="10" height="10" viewBox="0 0 10 10" fill="none" xmlns="http://www.w3.org/2000/svg">
<path d="M5.83304 5L9.82747 1.00557C9.93794 0.895101 10 0.745274 10 0.589049C10 0.432823 9.93794 0.282997 9.82747 0.172528C9.717 0.0620603 9.56718 0 9.41095 0C9.25473 0 9.1049 0.0620603 8.99443 0.172528L5 4.16696L1.00557 0.174194C0.895101 0.0637264 0.745274 0.00166609 0.589049 0.00166609C0.432823 0.00166609 0.282997 0.0637264 0.172528 0.174194C0.0620603 0.284663 1.16397e-09 0.434489 0 0.590715C-1.16397e-09 0.74694 0.0620603 0.896767 0.172528 1.00724L4.16696 5L0.174194 8.99443C0.0637264 9.1049 0.00166608 9.25473 0.00166608 9.41095C0.00166608 9.56718 0.0637264 9.717 0.174194 9.82747C0.284663 9.93794 0.434489 10 0.590715 10C0.74694 10 0.896767 9.93794 1.00724 9.82747L5 5.83304L8.99443 9.82747C9.1049 9.93794 9.25473 10 9.41095 10C9.56718 10 9.717 9.93794 9.82747 9.82747C9.93794 9.717 10 9.56718 10 9.41095C10 9.25473 9.93794 9.1049 9.82747 8.99443L5.83304 5Z" fill="#8E9092"/>
</svg>
