<svg width="16" height="18" viewBox="0 0 16 18" fill="none" xmlns="http://www.w3.org/2000/svg">
<g opacity="0.6">
<path d="M15 4.23498C12.41 3.96839 9.80444 3.83105 7.20667 3.83105C5.66667 3.83105 4.12667 3.91184 2.58667 4.07341L1 4.23498" stroke="black" stroke-width="1.5" stroke-linecap="round" stroke-linejoin="round"/>
<path d="M5.27783 3.41887L5.44894 2.36057C5.57339 1.59311 5.66672 1.01953 6.98117 1.01953H9.01894C10.3334 1.01953 10.4345 1.62542 10.5512 2.36865L10.7223 3.41887" stroke="black" stroke-width="1.5" stroke-linecap="round" stroke-linejoin="round"/>
<path d="M13.3277 6.78711L12.8221 14.9222C12.7366 16.1906 12.6666 17.1762 10.4966 17.1762H5.50323C3.33323 17.1762 3.26323 16.1906 3.17767 14.9222L2.67212 6.78711" stroke="black" stroke-width="1.5" stroke-linecap="round" stroke-linejoin="round"/>
<path d="M6.70129 12.7334H9.29129" stroke="black" stroke-width="1.5" stroke-linecap="round" stroke-linejoin="round"/>
<path d="M6.05566 9.50195H9.94455" stroke="black" stroke-width="1.5" stroke-linecap="round" stroke-linejoin="round"/>
</g>
</svg>
